<svg xmlns="http://www.w3.org/2000/svg" width="24" height="25" viewBox="0 0 24 25">
    <defs>
        <filter id="a" width="166.7%" height="166.7%" x="-33.3%" y="-33.3%" filterUnits="objectBoundingBox">
            <feOffset in="SourceAlpha" result="shadowOffsetOuter1"/>
            <feGaussianBlur in="shadowOffsetOuter1" result="shadowBlurOuter1" stdDeviation="2"/>
            <feColorMatrix in="shadowBlurOuter1" result="shadowMatrixOuter1" values="0 0 0 0 0 0 0 0 0 0 0 0 0 0 0 0 0 0 0.5 0"/>
            <feMerge>
                <feMergeNode in="shadowMatrixOuter1"/>
                <feMergeNode in="SourceGraphic"/>
            </feMerge>
        </filter>
    </defs>
    <g fill="none" fill-rule="evenodd" filter="url(#a)" transform="translate(0 .5)">
        <path fill="#C6C6C6" d="M7.12 19.64c-.366.555-.384 1.264.17 1.72.473.388 1.353.387 1.72-.17.759-1.15 2.068-1.979 2.068-1.979s-.411-1.049-.53-2.98c0 0-2.564 2.098-3.427 3.408z"/>
        <path fill="#FFF" d="M17.232 9.985c-2.201-1.14-2.878-2.592-4.101-3.732a2.082 2.082 0 0 0-.588-.347 1.23 1.23 0 0 0-.422-.113 1.815 1.815 0 0 0-.675.006c-.565.12-1.488 1.818-1.725 2.241-.847 1.454-2.001 2.479-2.576 3.2-.576.72.312 2.02 1.213 1.318.331-.258 1.59-1.615 1.87-2.017l.433 4.543c.029.307.16.576.351.8.212 2.156.695 4.298 1.53 6.288.61 1.453 2.78.325 2.173-1.122-.624-1.487-1.008-3.117-1.211-4.751.656-.408.928-1.191.851-2l-.427-4.487c.642.516 1.007.664 2.1 1.473 1.093.808 1.808-.987 1.204-1.3z"/>
        <circle cx="12.493" cy="3.13" r="2.13" fill="#FFF"/>
    </g>
</svg>
